<svg width="172" height="48" viewBox="0 0 172 48" fill="none" xmlns="http://www.w3.org/2000/svg">
<path d="M15.8205 30.0659C15.6629 30.6303 15.3203 31.1247 14.848 31.4691C14.3757 31.8134 13.8015 31.9876 13.2184 31.9634H12.7217C12.1407 31.9975 11.5662 31.8264 11.0975 31.4799C10.6289 31.1334 10.2957 30.6332 10.1556 30.0659L4.06242 10.1081C3.91823 9.45892 4.02596 8.77897 4.36367 8.20681C4.70138 7.63464 5.24364 7.21333 5.87994 7.02874C7.23318 6.70707 8.69439 7.42269 9.0147 8.67684L12.9737 23.882L16.9254 8.66238C17.2457 7.40824 18.7249 6.69262 20.0602 7.01428C20.7002 7.19817 21.2457 7.62139 21.5844 8.19687C21.9232 8.77236 22.0294 9.45633 21.8813 10.1081L15.8205 30.0659Z" fill="#051537"/>
<path d="M45.6085 40.8351C45.2196 40.8486 44.8319 40.7841 44.4681 40.6455C44.1042 40.5069 43.7715 40.2968 43.4894 40.0276C43.2073 39.7585 42.9814 39.4355 42.825 39.0777C42.6685 38.7199 42.5846 38.3344 42.5781 37.9437C42.5833 37.5506 42.6659 37.1624 42.8214 36.8015C42.9768 36.4407 43.202 36.1144 43.4838 35.8415C43.7655 35.5686 44.0984 35.3545 44.4631 35.2116C44.8278 35.0687 45.2171 34.9998 45.6085 35.0089C46.4064 34.9875 47.1803 35.2842 47.761 35.8341C48.3417 36.3841 48.6819 37.1425 48.7073 37.9437C48.7073 39.5881 47.2677 40.8351 45.6085 40.8351Z" fill="#FFF016"/>
<path d="M31.0839 26.2745C30.6903 26.2942 30.2969 26.2333 29.9274 26.0956C29.558 25.958 29.2203 25.7463 28.9348 25.4735C28.6493 25.2007 28.422 24.8725 28.2667 24.5088C28.1113 24.1451 28.0312 23.7535 28.0312 23.3578C28.0312 22.9621 28.1113 22.5705 28.2667 22.2068C28.422 21.8431 28.6493 21.5149 28.9348 21.2421C29.2203 20.9693 29.558 20.7577 29.9274 20.62C30.2969 20.4823 30.6903 20.4214 31.0839 20.4411C31.8818 20.4197 32.6557 20.7164 33.2364 21.2663C33.8171 21.8163 34.1573 22.5747 34.1827 23.3759C34.1827 25.0204 32.7431 26.2673 31.0839 26.2673" fill="#FF6E5D"/>
<path d="M31.0246 14.7656C26.1802 14.7656 22.2969 18.1269 22.2969 23.3856C22.2969 28.6443 26.191 32.1176 31.0246 32.1176C35.8581 32.1176 39.7882 28.6443 39.7882 23.3856C39.7882 18.1269 35.8689 14.7656 31.0246 14.7656ZM31.0785 27.5348C30.5231 27.5502 29.9702 27.4541 29.4522 27.2521C28.9342 27.0501 28.4615 26.7463 28.062 26.3585C27.6624 25.9708 27.344 25.5068 27.1253 24.9938C26.9066 24.4808 26.7921 23.9291 26.7885 23.3711C26.7885 22.2209 27.2435 21.1177 28.0534 20.3044C28.8634 19.491 29.9619 19.034 31.1073 19.034C32.2528 19.034 33.3513 19.491 34.1612 20.3044C34.9712 21.1177 35.4262 22.2209 35.4262 23.3711C35.4262 25.6662 33.4683 27.5348 31.0641 27.5348" fill="#051537"/>
<path d="M43.1094 17.0983C43.1094 15.8478 44.2503 14.8828 45.6035 14.8828C46.9567 14.8828 48.0617 15.884 48.0976 17.0983V29.7301C48.0617 30.9445 46.9208 31.9457 45.6035 31.9457C44.2863 31.9457 43.1094 30.9807 43.1094 29.7301V17.0983Z" fill="#051537"/>
<path d="M60.6728 27.2865C61.5329 27.282 62.3781 27.0608 63.131 26.6431C64.0235 26.1408 65.4847 25.9203 66.3701 26.8239C66.6062 27.0755 66.7866 27.3746 66.8994 27.7013C67.0122 28.028 67.0549 28.375 67.0246 28.7194C66.9944 29.0639 66.8919 29.398 66.7239 29.6998C66.5558 30.0016 66.3261 30.2643 66.0498 30.4706C64.4651 31.5712 62.5778 32.1474 60.6512 32.1187C55.8789 32.1187 51.5312 28.7539 51.5312 23.4951V23.3867C51.5312 18.128 55.8789 14.7667 60.6512 14.7667C62.5774 14.737 64.4647 15.3119 66.0498 16.4112C66.3262 16.6179 66.556 16.8809 66.724 17.183C66.8921 17.4852 66.9946 17.8196 67.0248 18.1643C67.0551 18.509 67.0124 18.8563 66.8996 19.1833C66.7867 19.5103 66.6063 19.8096 66.3701 20.0616C65.4811 20.9543 64.0199 20.7411 63.131 20.2387C62.3781 19.8211 61.5329 19.5999 60.6728 19.5954C58.535 19.5954 56.6131 21.0627 56.6131 23.3867V23.4915C56.6131 25.8155 58.535 27.2829 60.6728 27.2829" fill="#051537"/>
<path d="M83.8661 30.6177C82.1889 31.7273 80.0871 32.1212 78.1292 32.1212C73.3533 32.1212 69.4375 28.6479 69.4375 23.3892C69.4375 18.1305 73.3425 14.7656 78.1292 14.7656C82.9159 14.7656 86.6589 18.2751 86.6589 23.5338C86.6552 23.9406 86.4923 24.3297 86.2055 24.617C85.9187 24.9044 85.5309 25.067 85.1257 25.0698H74.3862C74.6381 27.0035 76.74 27.8275 78.4855 27.8275C79.5064 27.9003 80.5217 27.6225 81.3647 27.0396C82.502 26.2517 83.7869 26.4686 84.4995 27.289C84.71 27.5367 84.8623 27.8289 84.945 28.1439C85.0277 28.4588 85.0387 28.7884 84.9771 29.1082C84.9156 29.428 84.7831 29.7298 84.5895 29.9911C84.3959 30.2524 84.1462 30.4666 83.8589 30.6177M81.6491 21.9435C81.3971 19.9051 80.0079 18.9039 78.158 18.9039C76.3081 18.9039 74.8793 19.8328 74.451 21.9435H81.6491Z" fill="#051537"/>
<path d="M90.4118 23.8819C91.0051 23.6486 91.6641 23.6477 92.258 23.8793C92.8519 24.1109 93.3375 24.5582 93.6186 25.1324C94.1548 26.242 95.3641 27.46 97.5775 27.46C99.6794 27.46 101.141 26.4588 101.177 24.8469C101.209 23.7373 100.712 22.7723 98.2182 22.0567L95.2598 21.2326C89.8612 19.552 88.9182 16.4402 88.9182 14.221C88.9182 9.81886 92.6612 6.85156 97.3616 6.85156C100.889 6.85156 103.527 8.39123 104.844 10.9646C105.109 11.4553 105.175 12.0297 105.029 12.5683C104.883 13.1068 104.536 13.5681 104.059 13.856C102.778 14.68 101.637 14.3222 100.784 13.2488C100.375 12.71 99.8466 12.2744 99.2406 11.9764C98.6347 11.6784 97.9679 11.5262 97.2932 11.532C95.4757 11.532 94.1225 12.6163 94.1225 14.062C94.1225 14.7089 94.3708 15.8872 96.7569 16.5667L99.6794 17.4268C105.625 19.1472 106.482 22.5229 106.41 24.883C106.338 29.784 101.918 32.1115 97.5739 32.1115C93.2299 32.1115 90.0915 29.99 89.0226 26.8167C88.8196 26.2425 88.8518 25.6108 89.1123 25.0605C89.3728 24.5102 89.8402 24.0863 90.4118 23.8819Z" fill="#051537"/>
<path d="M119.633 14.7656C123.872 14.7656 127.72 17.8775 127.72 23.4398C127.72 29.0021 123.872 32.1357 119.633 32.1357C118.644 32.1436 117.669 31.9018 116.797 31.4326C115.926 30.9634 115.185 30.2817 114.645 29.4503V37.7631C114.609 38.9775 113.468 39.9786 112.15 39.9786C110.833 39.9786 109.656 39.0136 109.656 37.7631V17.1619C109.656 15.9077 110.797 14.9427 112.15 14.9427C113.504 14.9427 114.609 15.9439 114.645 17.1619V17.4835C116.084 15.2644 118.564 14.8018 119.633 14.8018M118.686 19.2364C116.444 19.2364 114.627 21.2387 114.627 23.4579C114.627 25.677 116.426 27.6793 118.686 27.6793C121.18 27.6793 122.606 25.677 122.606 23.4579C122.606 21.2387 121.166 19.2364 118.686 19.2364Z" fill="#051537"/>
<path d="M133.574 40.8351C133.185 40.8486 132.797 40.7841 132.434 40.6454C132.07 40.5067 131.738 40.2967 131.456 40.0274C131.174 39.7582 130.948 39.4353 130.792 39.0775C130.636 38.7197 130.553 38.3342 130.547 37.9437C130.552 37.5507 130.634 37.1626 130.789 36.8018C130.944 36.441 131.169 36.1147 131.45 35.8417C131.732 35.5688 132.064 35.3546 132.429 35.2117C132.793 35.0687 133.182 34.9998 133.574 35.0089C134.372 34.9875 135.145 35.2842 135.726 35.8341C136.307 36.3841 136.647 37.1425 136.672 37.9437C136.672 39.5881 135.233 40.8351 133.574 40.8351Z" fill="#93F6C6"/>
<path d="M131.078 17.0983C131.078 15.8478 132.219 14.8828 133.572 14.8828C134.925 14.8828 136.03 15.884 136.066 17.0983V29.7301C136.03 30.9445 134.89 31.9457 133.572 31.9457C132.255 31.9457 131.078 30.9807 131.078 29.7301V17.0983Z" fill="#051537"/>
<path d="M163.866 31.9678C163.477 31.9813 163.09 31.9168 162.726 31.7782C162.362 31.6396 162.029 31.4295 161.747 31.1604C161.465 30.8912 161.239 30.5683 161.083 30.2105C160.926 29.8527 160.842 29.4671 160.836 29.0764C160.841 28.6833 160.924 28.2951 161.079 27.9343C161.235 27.5734 161.46 27.2471 161.742 26.9742C162.023 26.7013 162.356 26.4872 162.721 26.3443C163.086 26.2014 163.475 26.1325 163.866 26.1416C164.664 26.1211 165.437 26.4182 166.018 26.9679C166.598 27.5177 166.939 28.2756 166.965 29.0764C166.965 30.7245 165.525 31.9678 163.866 31.9678Z" fill="#936EFE"/>
<path d="M161.367 8.21915C161.367 6.96862 162.504 6 163.861 6C165.218 6 166.319 7.00476 166.352 8.21915V20.8473C166.319 22.0653 165.179 23.0665 163.861 23.0665C162.544 23.0665 161.367 22.1015 161.367 20.8473V8.21915Z" fill="#051537"/>
<path d="M145.32 17.5089C145.807 16.661 146.508 15.9567 147.352 15.4669C148.196 14.9771 149.153 14.7191 150.128 14.7188C153.871 14.7187 156.247 17.0427 156.247 21.8027V29.754C156.247 31.0082 155.106 31.9732 153.753 31.9732C152.399 31.9732 151.294 30.972 151.258 29.754V22.8869C151.258 20.6678 150.046 19.5582 148.379 19.5582C146.634 19.5582 145.316 20.4184 145.316 22.9556V29.7432C145.316 30.9973 144.175 31.9623 142.822 31.9623C141.469 31.9623 140.364 30.9612 140.328 29.7432V17.115C140.364 15.897 141.505 14.8958 142.822 14.8958C144.14 14.8958 145.32 15.8645 145.32 17.115V17.5089Z" fill="#051537"/>
</svg>
